<svg xmlns="http://www.w3.org/2000/svg" viewBox="0 0 32 32" fill="none">
  <defs>
    <linearGradient id="g" x1="0%" y1="0%" x2="0%" y2="100%">
      <stop offset="0%" stop-color="#6366f1"/>
      <stop offset="100%" stop-color="#1e1b4b"/>
    </linearGradient>
  </defs>
  <path d="M16 2C10.5 2 5 7 5 14v12c0 0 0 2 1.5 2s2-2 3-2 2 2 3.5 2 2-2 3-2 2 2 3.5 2 2-2 3-2 2 2 3 2 1.5 0 1.5-2V14C27 7 21.5 2 16 2z" fill="url(#g)"/>
  <ellipse cx="12.5" cy="14.5" rx="2" ry="2.5" fill="#0f0b2e"/>
  <ellipse cx="12.8" cy="14" rx="1" ry="1.2" fill="#a5b4fc"/>
  <ellipse cx="19.5" cy="14.5" rx="2" ry="2.5" fill="#0f0b2e"/>
  <ellipse cx="19.8" cy="14" rx="1" ry="1.2" fill="#a5b4fc"/>
</svg>
